      <svg width="200" height="100" viewBox="0 0 127 31" fill="none" xmlns="http://www.w3.org/2000/svg">
              <path d="M97.3312 5.60713V1.48402H99.8169C100.147 1.48402 100.348 1.58012 100.501 1.75015C100.711 1.96823 100.806 2.27501 100.806 2.97544V5.60528H97.3312V5.60713ZM100.147 2.92C100.147 2.44504 100.09 2.23435 100.001 2.16228C99.9533 2.13086 99.8962 2.12162 99.8556 2.12162H97.989V4.99356H100.145V2.92H100.147ZM102.135 1.48402H102.795V3.84774H102.135V1.48402ZM106.415 4.17116C106.207 5.29296 105.572 5.60713 104.847 5.60713H104.623V4.95291H104.799C105.282 4.95291 105.629 4.73483 105.734 4.14529L106.095 2.1364H103.922C103.841 2.1364 103.801 2.09574 103.801 2.01443V0H104.46V1.48402H106.801C106.872 1.48402 106.906 1.54131 106.889 1.62078L106.414 4.16931L106.415 4.17116ZM108.098 1.48402H108.758V5.60713H108.098V1.48402ZM112.878 5.60713V2.92C112.878 2.44504 112.821 2.25098 112.732 2.17706C112.684 2.14564 112.627 2.1364 112.588 2.1364H110.786V5.60528H110.127V1.48402H112.548C112.878 1.48402 113.079 1.58012 113.231 1.75015C113.442 1.96823 113.537 2.27501 113.537 2.97544V5.60528H112.878V5.60713ZM119.966 5.60713V2.92C119.966 2.44504 119.909 2.25098 119.821 2.17706C119.773 2.14564 119.716 2.1364 119.675 2.1364H118.002V4.54817C118.002 5.25045 117.576 5.63855 116.917 5.63855C116.771 5.63855 116.587 5.62931 116.434 5.58126V4.93627C116.53 4.96769 116.699 5.00096 116.876 5.00096C117.166 5.00096 117.342 4.83093 117.342 4.58883V1.48402H119.635C119.965 1.48402 120.165 1.58012 120.318 1.75015C120.528 1.96823 120.624 2.27501 120.624 2.97544V5.60528H119.965L119.966 5.60713ZM121.955 1.48402H122.614V3.84774H121.955V1.48402ZM123.701 5.60713V4.95291H125.456C125.585 4.95291 125.64 4.94551 125.721 4.87159C125.85 4.75886 125.898 4.24324 125.898 3.54096C125.898 2.75921 125.841 2.33785 125.738 2.23435C125.642 2.13825 125.568 2.13825 125.472 2.13825H123.83V1.48402H125.504C125.745 1.48402 126.01 1.54871 126.219 1.75754C126.524 2.06433 126.572 2.63724 126.572 3.54096C126.572 4.12126 126.477 4.67015 126.29 4.95291H126.998V5.60713H123.7H123.701Z" fill='#1A2B68'/>
              <path d="M70.165 17.9783C69.7854 14.3431 75.8699 10.7226 83.7547 9.89469C91.6413 9.0649 98.3449 11.3362 98.7282 14.9733C99.1077 18.6085 93.0233 22.227 85.1385 23.0587C77.2519 23.8885 70.5501 21.6153 70.1669 17.9801M77.4454 17.2113C77.5983 18.6676 80.8598 19.5177 84.7258 19.1093C88.5954 18.7027 91.6063 17.1928 91.4533 15.7365C91.3004 14.2802 88.0426 13.4319 84.173 13.8385C80.3052 14.2451 77.2925 15.7532 77.4454 17.2095" fill= '#1A2B68'/>
              <path d="M116.078 26.7346H68.2244V31H116.078V26.7346Z" fill="#7AB929"/>
              <path d="M116.063 31C116.988 31 117.737 30.0446 117.737 28.8673C117.737 27.6901 116.987 26.7346 116.063 26.7346" fill="#7AB929"/>
              <path d="M3.53238 30.8891V28.202C3.53238 27.7252 3.47526 27.533 3.38681 27.4591C3.33891 27.4258 3.28178 27.4184 3.24124 27.4184H1.56811V29.8302C1.56811 30.5324 1.14061 30.9187 0.482778 30.9187C0.337207 30.9187 0.152941 30.9113 0 30.8614V30.2164C0.0958185 30.2478 0.265343 30.2811 0.442239 30.2811C0.731537 30.2811 0.908433 30.1111 0.908433 29.869V26.7623H3.20071C3.53054 26.7623 3.73139 26.8584 3.88433 27.0285C4.0944 27.2465 4.19022 27.5533 4.19022 28.2556V30.8854H3.53054L3.53238 30.8891ZM5.88362 26.766H6.5433V30.8891H5.88362V26.766ZM11.1702 30.8891C10.6082 29.9281 9.77901 28.8729 9.34414 28.3794C9.00694 28.8303 8.69184 29.9688 8.69184 30.8411V30.8891H8.00821V30.8725C8.00821 29.8801 8.47441 28.5162 8.97377 28.0006C8.69921 27.6697 8.12983 27.0395 7.83869 26.766H8.67526C9.1175 27.1781 9.92274 28.0967 10.4203 28.7028C10.6948 28.2427 10.8385 27.5164 10.8385 26.8159V26.7679H11.5461V26.7845C11.5461 27.7215 11.0873 28.7453 10.7335 29.1316C10.9915 29.4864 11.6032 30.3587 11.9239 30.891H11.1665L11.1702 30.8891ZM13.199 26.766H13.8587V29.1297H13.199V26.766ZM17.2381 30.8891V28.202C17.2381 27.7252 17.181 27.533 17.0925 27.4591C17.0446 27.4258 16.9875 27.4184 16.947 27.4184H15.1854V26.7642H16.9064C17.2363 26.7642 17.4371 26.8603 17.5901 27.0303C17.8001 27.2484 17.8959 27.5552 17.8959 28.2574V30.8873H17.2363L17.2381 30.8891ZM19.3056 30.8891V30.2349H21.0598C21.1888 30.2349 21.2441 30.2275 21.3251 30.1536C21.4541 30.0409 21.502 29.5234 21.502 28.823C21.502 28.0394 21.4468 27.6198 21.3417 27.5163C21.2459 27.4202 21.1722 27.4202 21.0764 27.4202H19.4346V26.766H21.1077C21.3491 26.766 21.6144 26.8307 21.8245 27.0395C22.1304 27.3463 22.1783 27.9192 22.1783 28.823C22.1783 29.4033 22.0825 29.9521 21.8964 30.2349H22.6039V30.8891H19.3056ZM28.6405 29.4532C28.4304 30.5749 27.7947 30.8891 27.0706 30.8891H26.8458V30.2349H27.0227C27.5054 30.2349 27.8519 30.0168 27.955 29.4273L28.318 27.4184H26.1455C26.0645 27.4184 26.0239 27.3777 26.0239 27.2964V25.2802H26.6836V26.7642H29.0238C29.0956 26.7642 29.1288 26.8215 29.1122 26.9009L28.6387 29.4513L28.6405 29.4532ZM34.6826 29.3404C34.5389 30.5269 33.7097 30.9612 32.7036 30.9612H32.5506C31.4893 30.9612 30.7725 30.3957 30.6674 29.2905L30.4261 26.7642H31.1097L31.2718 28.5716H31.7307C32.125 28.5716 32.3185 28.3129 32.3332 27.7492L32.3572 26.7642H33.0334L33.0003 27.7492C32.9763 28.5956 32.5267 29.0558 31.6975 29.0558H31.3105L31.3345 29.2499C31.4229 30.0168 31.8818 30.3624 32.5414 30.3624H32.6944C33.378 30.3624 33.9013 30.0797 33.9971 29.2813L34.2938 26.7642H34.9848L34.6789 29.3386L34.6826 29.3404ZM42.2154 29.5585C42.0938 30.5435 41.5078 30.9538 40.6547 30.9538H40.6233C39.7794 30.9538 39.175 30.5269 39.0626 29.5585L38.7162 26.766H39.4238L39.761 29.6472C39.8089 30.0667 40.0595 30.3014 40.6049 30.3014H40.6694C41.1835 30.3014 41.4747 30.0519 41.5226 29.6472L41.7879 27.4202H40.4612V26.766H42.3757C42.4328 26.766 42.4808 26.7734 42.5047 26.8141C42.5452 26.8695 42.536 26.9675 42.5213 27.0968L42.2154 29.5585ZM45.8455 30.8891V28.202C45.8455 27.7252 45.7883 27.533 45.6999 27.4591C45.652 27.4258 45.5949 27.4184 45.5543 27.4184H43.7927V26.7642H45.5138C45.8436 26.7642 46.0445 26.8603 46.1974 27.0303C46.4075 27.2484 46.5033 27.5552 46.5033 28.2574V30.8873H45.8436L45.8455 30.8891ZM50.5442 27.4202V30.8891H49.8846V27.4202H47.8337V26.766H51.1247V27.4202H50.5461H50.5442ZM52.4127 30.8891V30.2349H53.5625V28.202C53.5625 27.7252 53.5054 27.533 53.4188 27.4591C53.3709 27.4258 53.3138 27.4184 53.2732 27.4184H52.5325V26.7642H53.2327C53.5625 26.7642 53.7634 26.8603 53.9163 27.0303C54.1264 27.2484 54.2222 27.5552 54.2222 28.2574V30.8873H52.4127V30.8891ZM59.1716 29.5585C59.0518 30.5435 58.464 30.9538 57.6109 30.9538H57.5795C56.7356 30.9538 56.1312 30.5269 56.0188 29.5585L55.6724 26.766H56.38L56.7172 29.6472C56.7651 30.0667 57.0138 30.3014 57.5611 30.3014H57.6256C58.1415 30.3014 58.4308 30.0519 58.4787 29.6472L58.7441 27.4202H57.4174V26.766H59.3319C59.389 26.766 59.4369 26.7734 59.4609 26.8141C59.5014 26.8695 59.4941 26.9675 59.4775 27.0968L59.1716 29.5585ZM64.4342 29.5585C64.3126 30.5435 63.7267 30.9538 62.8735 30.9538H62.7685C61.9245 30.9538 61.3201 30.5343 61.2004 29.5585L60.8705 26.8566C60.8632 26.8233 60.8945 26.7679 60.9424 26.7679H64.6922C64.7475 26.7679 64.7714 26.8085 64.7641 26.8566L64.4342 29.5585ZM61.626 27.4036L61.884 29.662C61.9319 30.0575 62.2065 30.3162 62.7537 30.3162H62.8901C63.4042 30.3162 63.7027 30.0187 63.7432 29.662L64.0086 27.4036H61.6279H61.626Z" fill='#1A2B68'/>
              <path d="M51.2409 19.2739L54.1597 14.0548H41.3182C40.2384 16.7993 37.8503 22.6984 35.488 22.6984H31.471C28.4122 22.6984 28.4122 18.0985 31.471 18.0985H34.0691L36.0832 14.0456C33.2455 13.8331 33.3173 9.45493 36.3006 9.45493H39.3834C39.6008 9.42166 39.8201 9.42351 40.0375 9.45493H58.0735C63.7157 9.45493 57.6147 17.2816 55.2376 21.5267C53.7432 24.2009 49.7447 21.9499 51.2409 19.2757" fill='#1A2B68'/>
              <path d="M30.0741 12.3268L24.7119 17.7066L25.823 18.5993C28.2203 20.5028 25.3734 24.1103 22.9743 22.203L13.2358 14.4669L7.41666 22.0737C5.55188 24.5058 1.91446 21.7059 3.77555 19.2738C13.4348 6.64944 11.1149 6.17818 21.1648 14.7571L26.831 9.076C28.9943 6.90818 32.2355 10.159 30.0722 12.3268" fill='#1A2B68'/>
              <path d="M124.544 12.3268L119.183 17.7066L120.291 18.5993C122.69 20.5028 119.841 24.1103 117.446 22.203L107.705 14.4669L101.886 22.0737C100.027 24.5058 96.3858 21.7059 98.2451 19.2738C107.904 6.64944 105.583 6.17818 115.636 14.7571L121.3 9.076C123.464 6.90818 126.709 10.159 124.544 12.3268Z" fill='#1A2B68'/>
              <path d="M67.3661 9.82641L64.8821 14.321C65.341 14.7645 65.6284 15.3855 65.6284 16.0767C65.6284 17.4221 64.5413 18.5143 63.1998 18.5143C62.9953 18.5143 62.7981 18.4866 62.6065 18.4386L61.9892 19.5567C60.5095 22.2383 64.521 24.4689 66.0025 21.7855L71.3775 12.0552C72.859 9.37178 68.8476 7.14297 67.3661 9.82641Z" fill='#1A2B68'/>
              <path d="M63.1977 14.3561C64.1448 14.3561 64.9151 15.1268 64.9151 16.0767C64.9151 17.0266 64.1467 17.7991 63.1977 17.7991C62.2487 17.7991 61.4803 17.0266 61.4803 16.0767C61.4803 15.1268 62.2469 14.3542 63.1977 14.3542" fill="#7AB929"/>
          </svg>